<svg xmlns="http://www.w3.org/2000/svg" viewBox="0 0 500.22 101.09"><defs><style>.a{fill:none;stroke:#000;stroke-miterlimit:10;}</style></defs><title>designhor</title><path class="a" d="M.5,1.61l41-.09C70.24,1.46,90.22,20.93,90.29,50.9s-19.83,49.53-48.61,49.6l-41,.09ZM38.27,71.66c16.06,0,23.41-6.88,23.38-20.8s-7.41-21-23.47-21l-9.51,0,.1,41.76Z"/><path class="a" d="M168.35,1.24l.06,27.43-38.28.08,0,10.61,34-.08.06,22.9-34,.08,0,10.6,38.28-.08.06,27.42-66.39.15-.22-99Z"/><path class="a" d="M200.62,62.89a17.23,17.23,0,0,0,16.62,11.93c6.29,0,9.37-1.9,9.36-5.8,0-3.63-3.49-5.37-11.53-7.51l-10.45-2.93c-14.86-4.27-23.05-13.67-23.08-28.19C181.1,12.63,198.61.9,217.08,1.12A41.57,41.57,0,0,1,237,6.19a26.42,26.42,0,0,1,13,15.17L228.26,31.9c-1.89-4.71-5.37-7-10.46-7-4.15,0-7.63,1.49-7.62,4.72s3.49,4.83,10.46,6.84l10,2.8c16.34,4.53,24.53,14.07,24.56,28.46,0,20.17-17.46,32.31-38.21,32.36a48.75,48.75,0,0,1-25.31-6.67,33.62,33.62,0,0,1-14.9-18.93Z"/><path class="a" d="M294.58,1l.22,99-28.11.07-.22-99Z"/><path class="a" d="M356.64,99.79c-29.05.6-50.78-22.08-50.44-49.38C305.74,23.11,327.37.34,356.42.81,371,.78,383.87,6.13,393,15.25L372.15,33.72c-3.89-4.16-9.11-6.3-15.67-6.28-13.79,0-21.66,10.4-21.64,22.91s8,22.84,21.74,22.81c8.17,0,14.45-3.8,18.05-10.12L361.34,45.45l44.57-.1c.14,1.75.27,3.36.28,4.84A48.44,48.44,0,0,1,356.64,99.79Z"/><path class="a" d="M442.86,51.1,443,99.59l-28.24.07-.23-99,22.76,0L471.5,48.91,471.39.56,499.5.5l.22,99-22.75,0Z"/></svg>