<?xml version="1.0" encoding="utf-8"?>
<!-- Generator: Adobe Illustrator 24.0.0, SVG Export Plug-In . SVG Version: 6.00 Build 0)  -->
<svg version="1.1" id="logo" xmlns="http://www.w3.org/2000/svg" xmlns:xlink="http://www.w3.org/1999/xlink" x="0px" y="0px"
	 style="enable-background:new 0 0 678.4 91.1;" xml:space="preserve">
<style type="text/css">
	.st0{fill:none;stroke:#000000;stroke-width:5;}
</style>
<path class="st0" d="M70.8,1.4h11.9v88.7H69.9v-69L42.6,55.3h-2.3L12.7,21.1v69H0V1.4h12l29.5,36.4L70.8,1.4z"/>
<path class="st0" d="M136.9,55v24.8c0,2,0.7,3,2,3s3.6-1,6.5-3.1v7c-2,1.4-4.1,2.5-6.3,3.5c-1.6,0.6-3.3,0.9-5,0.9
	c-5,0-7.9-1.9-8.8-5.8c-4.4,3.6-10,5.7-15.7,5.7c-3.8,0.1-7.5-1.3-10.2-4c-2.7-2.7-4.2-6.3-4.1-10.1c0-3.7,1.4-7.2,4-9.9
	c3.1-3.2,7-5.6,11.3-6.9l14.8-5.1v-3.1c0-7-3.5-10.5-10.5-10.5c-6.3,0-12.4,3.3-18.4,9.8V38.5c4.5-5.3,10.9-7.9,19.4-7.9
	c6.3,0,11.4,1.7,15.2,5c1.4,1.2,2.5,2.6,3.4,4.2c1,1.6,1.6,3.4,1.9,5.3C136.8,48.3,136.9,51.6,136.9,55z M125.5,78.5V61.2l-7.8,3
	c-3.9,1.6-6.7,3.1-8.3,4.7c-3.2,3.3-3.3,8.5-0.1,11.8c1.6,1.5,3.8,2.4,6,2.3C119.2,83,122.8,81.3,125.5,78.5z"/>
<path class="st0" d="M147.5,40.9l21.7-21.4v12.1h18.5v10.4h-18.5v28.6c0,6.7,2.8,10,8.3,10c4.1,0,8.5-1.4,13.1-4.1v10.8
	c-4.4,2.5-9.4,3.8-14.5,3.7c-4.8,0.2-9.5-1.5-13.2-4.6c-1.1-0.9-2-2-2.7-3.1c-0.8-1.4-1.4-3-1.8-4.6c-0.5-1.9-0.7-5.5-0.7-10.8V42.1
	h-10.2V40.9z"/>
<path class="st0" d="M198.7,1.4h11.5v38c4.8-5.9,10.8-8.8,18-8.8c3.7-0.1,7.3,1,10.5,2.9c3.1,1.9,5.5,4.7,6.9,8.1
	c1.5,3.4,2.3,8.5,2.3,15.3v33.2h-11.6V53.9c0-4.3-1-7.7-3.2-10.3c-2-2.5-5.1-4-8.3-3.9c-2.5,0-5,0.7-7.2,2c-2.8,1.8-5.3,4-7.4,6.5
	v41.8h-11.5V1.4z"/>
<path class="st0" d="M313.7,61.9h-41.1c0.3,5.6,2.2,10,5.6,13.3s7.9,5,13.4,5c7.6,0,15-2.5,21.1-7.1v11.3c-3.2,2.2-6.8,3.9-10.6,5.1
	c-4,1.1-8.1,1.6-12.3,1.5c-6.4,0-11.6-1.3-15.6-4c-4-2.7-7.3-6.4-9.5-10.8c-2.5-4.8-3.7-10.2-3.6-15.7c0-8.9,2.5-16.1,7.6-21.7
	s11.6-8.3,19.6-8.3c7.8,0,13.9,2.7,18.5,8.1c4.6,5.4,6.9,12.7,6.9,21.8L313.7,61.9z M272.9,55h29.4c-0.3-4.6-1.7-8.2-4.1-10.7
	s-5.8-3.7-9.9-3.7c-3.8-0.1-7.4,1.2-10.2,3.7C275.4,46.8,273.7,50.4,272.9,55z M301.1,0l-14.3,19h-7.1l8.6-19H301.1z"/>
<path class="st0" d="M354.1,31.6c8.9,0,16.3,2.9,22.2,8.6s8.8,12.9,8.8,21.6c0.2,8-3.1,15.6-9,21c-6,5.6-13.5,8.3-22.5,8.3
	c-8.8,0-16.1-2.8-22-8.5C319.9,71,319.8,52,331.5,40.3c0.1-0.1,0.1-0.1,0.2-0.2C337.7,34.4,345.2,31.6,354.1,31.6z M353.5,42
	c-5.1-0.2-10.1,1.8-13.7,5.5c-3.6,3.7-5.5,8.7-5.3,13.9c-0.2,5.1,1.8,10.1,5.5,13.7c3.6,3.5,8.3,5.3,14,5.3c5.7,0,10.4-1.8,14-5.4
	c7.3-7.7,7.2-19.9-0.2-27.5C363.9,43.7,358.8,41.8,353.5,42L353.5,42z"/>
<path class="st0" d="M451,0.9h8.9l39.8,89.2h-13l-11.8-26.3H437l-11.1,26.3h-13L451,0.9z M469.6,52.5l-14.3-32.1L442,52.5
	L469.6,52.5z"/>
<path class="st0" d="M545,90.1v-7.5c-2.4,2.6-5.2,4.7-8.4,6.3c-2.9,1.4-6.2,2.2-9.4,2.2c-3.6,0-7.1-0.9-10.2-2.8
	c-3-1.8-5.4-4.4-7-7.5c-1.6-3.1-2.4-8.4-2.4-15.7V31.7h11.6v33.3c0,6.1,0.9,10.4,2.6,12.8c1.8,2.4,4.8,3.6,9.2,3.6
	c5.5,0,10.2-2.7,14-8.1V31.7h11.6v58.4H545z"/>
<path class="st0" d="M622.5,61.9h-41.1c0.3,5.6,2.2,10,5.6,13.3s7.9,5,13.4,5c7.6,0,15-2.5,21.1-7.1v11.3c-3.2,2.2-6.8,3.9-10.6,5.1
	c-4,1.1-8.1,1.6-12.3,1.5c-6.4,0-11.6-1.3-15.6-4c-4-2.7-7.3-6.4-9.6-10.8c-2.5-4.8-3.7-10.2-3.6-15.7c0-8.9,2.5-16.1,7.6-21.7
	c5-5.6,11.6-8.3,19.6-8.3c7.7,0,13.9,2.7,18.5,8.1s6.9,12.7,6.9,21.8L622.5,61.9z M581.7,55h29.4c-0.3-4.6-1.7-8.2-4.1-10.7
	s-5.8-3.7-9.9-3.7c-3.8-0.1-7.4,1.2-10.2,3.7C584.2,46.8,582.5,50.4,581.7,55z"/>
<path class="st0" d="M647.4,31.7v13.4l0.6-1c5.6-9,11.2-13.5,16.8-13.5c4.4,0,8.9,2.2,13.6,6.6l-6.1,10.1c-4-3.8-7.7-5.7-11.2-5.7
	c-3.7,0-7,1.8-9.7,5.3c-2.8,3.6-4.2,8.1-4.1,12.6v30.5h-11.6V31.7H647.4z"/>
</svg>
