<svg xmlns="http://www.w3.org/2000/svg" viewBox="0 0 112.96 296"><defs><style>.a{fill:none;stroke:#000;stroke-miterlimit:10;}</style></defs><title>pro</title><path class="a" d="M.52,248.78C.52,227.24,16,212.6,39.07,212.6c22.87,0,39,14.64,39,36.18V270.6h34.39v24.9H.52Zm24.63,4.39V270.6H53.3V253.17c0-10-5.28-15.23-14.07-15.23C30.75,237.94,25.15,243.21,25.15,253.17Z" transform="translate(-0.02 0)"/><path class="a" d="M112.48,117.39v28.27L61.62,175h50.86v24.61H.52v-39.4c0-21.82,11.67-39,34.39-39,16.63,0,27.35,9.23,31.83,23.43ZM48,175V161.48c0-8.79-4.16-15.09-12.47-15.09s-12.48,6.3-12.48,15.09V175Z" transform="translate(-0.02 0)"/><path class="a" d="M.52,55C.07,23.21,25.65.07,55.91.51,86.18.07,111.75,23.21,111.3,55c.45,31.79-25.12,55.08-55.39,54.64C25.65,110.07.07,86.78.52,55Zm24.37,0c0,18.31,14.22,29.15,31,29.15s31-10.84,31-29.15-14.22-29-31-29S24.89,36.83,24.89,55Z" transform="translate(-0.02 0)"/></svg>