<svg xmlns="http://www.w3.org/2000/svg" viewBox="0 0 597.28 90.13"><defs><style>.a{fill:none;stroke:#000;stroke-miterlimit:10;}</style></defs><title>welcome</title><path class="a" d="M116.13,1,90.88,88.1H78.13L57.88,18l-21,70.13-12.63.12L-.13,1H12L31,74.85,52,1H64.75l20,73.63L103.88,1Z" transform="translate(0.78 0.65)"/><path class="a" d="M140,10.22V39.35h31.75v9.37H140v30h35.5V88.1H128.62V.85H175.5v9.37Z" transform="translate(0.78 0.65)"/><path class="a" d="M204.12,78.85h30.5V88.1H192.75V1h11.37Z" transform="translate(0.78 0.65)"/><path class="a" d="M248.25,21.54A41.76,41.76,0,0,1,263.93,5.6,43.31,43.31,0,0,1,286-.15q14.25,0,24.87,6.87a39.47,39.47,0,0,1,15.5,19.5H312.75A27.36,27.36,0,0,0,302.31,14.1,30.22,30.22,0,0,0,286,9.85a31.8,31.8,0,0,0-16.38,4.25,29.69,29.69,0,0,0-11.37,12.06,38.67,38.67,0,0,0-4.13,18.31,38.4,38.4,0,0,0,4.13,18.19,29.69,29.69,0,0,0,11.37,12.06A31.7,31.7,0,0,0,286,79a30.55,30.55,0,0,0,16.31-4.18,27,27,0,0,0,10.44-12.07h13.62A39.11,39.11,0,0,1,310.87,82Q300.25,88.85,286,88.85a43.67,43.67,0,0,1-22.07-5.69,41.42,41.42,0,0,1-15.68-15.81,45.45,45.45,0,0,1-5.75-22.88A45.74,45.74,0,0,1,248.25,21.54Z" transform="translate(0.78 0.65)"/><path class="a" d="M360.62,83.29a41.58,41.58,0,0,1-15.81-15.88A45.41,45.41,0,0,1,339,44.47a45.37,45.37,0,0,1,5.81-22.93A41.58,41.58,0,0,1,360.62,5.66a46.11,46.11,0,0,1,44.38,0,41.39,41.39,0,0,1,15.75,15.81,45.79,45.79,0,0,1,5.75,23,45.76,45.76,0,0,1-5.75,23A41.41,41.41,0,0,1,405,83.29a46.18,46.18,0,0,1-44.38,0Zm38.56-8.44a29.86,29.86,0,0,0,11.5-12.13,38.31,38.31,0,0,0,4.19-18.25,38.22,38.22,0,0,0-4.19-18.31A30.1,30.1,0,0,0,399.25,14.1a34.15,34.15,0,0,0-33,0,30.05,30.05,0,0,0-11.44,12.06,38.1,38.1,0,0,0-4.19,18.31,38.19,38.19,0,0,0,4.19,18.25,29.86,29.86,0,0,0,11.5,12.13,33.9,33.9,0,0,0,32.87,0Z" transform="translate(0.78 0.65)"/><path class="a" d="M529.87,1.6V88.1H518.49V23.6L489.74,88.1h-8L452.87,23.47V88.1H441.49V1.6h12.25l32,71.5,32-71.5Z" transform="translate(0.78 0.65)"/><path class="a" d="M560.49,10.22V39.35h31.75v9.37H560.49v30H596V88.1H549.12V.85H596v9.37Z" transform="translate(0.78 0.65)"/></svg>