<svg xmlns="http://www.w3.org/2000/svg" viewBox="0 0 91 398.13"><title>work</title><path d="M0,328.13,67.29,303,.89,278.38V265.25l90.11,34v7.13L23.2,331.63,91,356.88V364L.89,398V384.88l66.4-24.63L0,335.13Z" transform="translate(0 0.12)"/><path d="M0,214.25c-.37-27.25,21.13-46,45.38-45.63,24.25-.37,45.87,18.38,45.37,45.63.5,27.25-21.12,46.12-45.37,45.75C21.13,260.37-.37,241.5,0,214.25Zm11.63,0c0,20.62,15.87,33.37,33.75,33.37s33.75-12.75,33.75-33.37S63.38,181,45.38,181,11.63,193.5,11.63,214.25Z" transform="translate(0 0.12)"/><path d="M91,99.62,51.48,122.75v16.87H91v12H0v-35C0,100.5,9.62,88.37,25.74,88.37c13.52,0,22.62,8.38,25.09,21.25L91,85.62Zm-51,40V116.75c0-9.88-5.46-15.88-14.3-15.88s-14.3,6-14.3,15.88v22.87Z" transform="translate(0 0.12)"/><path d="M0,69V56.63H51.22L0,17V2.5L42.25,35.38,91-.12V14.63l-37.18,27v15H91V69Z" transform="translate(0 0.12)"/></svg>